<?xml version="1.0" standalone="no"?>
<!DOCTYPE svg PUBLIC "-//W3C//DTD SVG 20010904//EN"
 "http://www.w3.org/TR/2001/REC-SVG-20010904/DTD/svg10.dtd">
<svg version="1.0" xmlns="http://www.w3.org/2000/svg"
 width="2827.000000pt" height="1456.000000pt" viewBox="0 0 2827.000000 1456.000000"
 preserveAspectRatio="xMidYMid meet">

<g transform="translate(0.000000,1456.000000) scale(0.100000,-0.100000)"
fill="#000000" stroke="none">
<path d="M17089 9850 c-376 -60 -654 -243 -834 -550 -85 -146 -143 -327 -165
-520 -18 -151 -8 -457 19 -582 96 -444 365 -759 762 -892 120 -40 239 -58 399
-58 346 0 622 112 844 342 221 230 329 510 343 891 16 444 -97 785 -347 1039
-163 166 -336 261 -577 315 -81 19 -363 28 -444 15z m340 -485 c195 -46 343
-187 420 -400 51 -141 64 -242 58 -455 -4 -156 -8 -200 -30 -282 -66 -252
-216 -419 -433 -484 -73 -22 -254 -25 -334 -5 -107 26 -180 69 -266 155 -131
131 -193 283 -216 534 -13 143 0 326 33 456 61 246 224 424 439 480 73 20 248
20 329 1z"/>
<path d="M19805 9846 c-521 -86 -869 -442 -967 -986 -29 -162 -29 -447 0 -610
51 -283 153 -491 332 -671 239 -242 579 -360 948 -328 291 25 521 128 713 318
212 211 323 458 359 801 47 457 -78 882 -339 1153 -142 148 -356 263 -581 312
-102 22 -361 28 -465 11z m364 -481 c167 -40 299 -150 381 -318 79 -162 94
-242 95 -487 0 -227 -10 -296 -65 -438 -32 -83 -104 -195 -161 -249 -169 -160
-471 -198 -696 -87 -232 115 -363 393 -363 769 0 436 180 737 483 811 73 17
249 17 326 -1z"/>
<path d="M5087 9824 c-4 -4 -7 -578 -7 -1276 l0 -1268 270 0 270 0 0 801 c0
612 3 800 12 797 6 -2 259 -362 561 -799 l549 -794 234 -3 234 -2 0 1275 0
1275 -267 -2 -268 -3 -3 -798 c-2 -631 -5 -798 -15 -795 -6 3 -258 362 -558
799 l-545 794 -230 3 c-127 1 -233 -1 -237 -4z"/>
<path d="M7657 9823 c-4 -3 -7 -577 -7 -1275 l0 -1268 865 0 865 0 0 220 0
220 -592 2 -593 3 -3 303 -2 302 545 0 545 0 0 225 0 225 -545 0 -545 0 0 300
0 300 590 0 590 0 0 225 0 225 -853 0 c-470 0 -857 -3 -860 -7z"/>
<path d="M9650 9815 c0 -11 439 -1556 712 -2502 l9 -33 262 0 263 0 238 823
c131 452 243 826 248 832 6 6 11 6 16 -2 4 -6 115 -381 246 -832 l239 -821
263 0 c241 0 263 1 268 18 34 115 709 2484 713 2505 l6 27 -291 0 -291 0 -10
-37 c-5 -21 -101 -420 -212 -888 -111 -467 -203 -852 -205 -854 -3 -3 -8 0
-13 5 -5 5 -107 383 -226 839 -119 457 -223 854 -232 883 l-15 52 -250 -2
-250 -3 -232 -882 c-133 -510 -236 -883 -242 -883 -14 0 1 -58 -234 930 -105
443 -193 813 -196 823 -5 16 -28 17 -295 17 -251 0 -289 -2 -289 -15z"/>
<path d="M14237 9823 c-4 -3 -7 -577 -7 -1275 l0 -1268 815 0 815 0 0 220 0
220 -542 2 -543 3 -3 1053 -2 1052 -263 0 c-145 0 -267 -3 -270 -7z"/>
<path d="M21600 8555 l0 -1275 270 0 270 0 0 365 0 366 126 154 c70 85 130
155 133 155 3 0 161 -234 351 -520 l345 -519 324 -1 c257 0 321 3 314 13 -70
89 -943 1391 -940 1400 3 7 213 262 466 567 254 305 461 558 461 562 0 5 -141
8 -313 8 l-313 0 -26 -27 c-14 -16 -222 -269 -462 -563 -240 -294 -443 -536
-451 -538 -13 -3 -15 70 -17 560 l-3 563 -267 3 -268 2 0 -1275z"/>
<path d="M11474 6596 c-50 -22 -60 -78 -21 -114 48 -45 130 -16 130 47 0 57
-54 90 -109 67z"/>
<path d="M10707 6573 c-4 -3 -7 -217 -7 -475 l0 -468 60 0 60 0 0 210 0 210
206 0 205 0 -3 53 -3 52 -202 3 -203 2 0 155 0 155 225 0 225 0 0 55 0 55
-278 0 c-153 0 -282 -3 -285 -7z"/>
<path d="M13257 6573 c-4 -3 -7 -217 -7 -475 l0 -468 55 0 55 0 0 475 0 475
-48 0 c-27 0 -52 -3 -55 -7z"/>
<path d="M13897 6573 c-4 -3 -7 -28 -7 -55 l0 -48 150 0 150 0 0 -420 0 -420
55 0 55 0 0 420 0 420 150 0 150 0 0 55 0 55 -348 0 c-192 0 -352 -3 -355 -7z"/>
<path d="M16920 6106 l0 -476 55 0 55 0 0 248 c0 237 1 249 23 286 32 58 95
89 170 84 65 -5 101 -26 132 -79 18 -31 20 -55 23 -286 l4 -253 54 0 54 0 0
228 c0 125 -5 254 -10 287 -22 133 -102 200 -240 200 -91 0 -140 -21 -181 -78
l-29 -39 -2 173 -3 174 -52 3 -53 3 0 -475z"/>
<path d="M12008 6340 c-46 -14 -95 -49 -117 -83 l-21 -32 0 58 0 57 -55 0 -55
0 0 -355 0 -355 55 0 55 0 0 238 c0 257 6 288 61 339 77 70 208 54 256 -32 22
-39 23 -49 23 -292 l0 -253 55 0 55 0 0 256 c0 155 -4 273 -11 299 -17 66 -78
131 -142 150 -55 16 -116 18 -159 5z"/>
<path d="M12690 6335 c-69 -20 -125 -58 -158 -108 -29 -43 -27 -46 38 -67 38
-12 39 -12 71 25 42 48 83 65 154 65 89 0 129 -31 149 -113 15 -63 -11 -80
-139 -92 -103 -10 -213 -41 -253 -71 -47 -36 -65 -84 -60 -160 5 -80 36 -129
109 -169 46 -25 64 -29 129 -29 85 0 140 22 183 74 14 16 28 30 31 30 3 0 6
-20 6 -45 l0 -45 55 0 55 0 0 233 c0 263 -8 333 -45 389 -52 78 -203 117 -325
83z m260 -402 c0 -73 -18 -124 -59 -164 -59 -59 -150 -75 -228 -40 -48 22 -63
45 -63 98 0 77 44 102 219 128 57 8 107 17 109 20 15 14 22 0 22 -42z"/>
<path d="M14857 6336 c-100 -28 -181 -113 -213 -224 -23 -78 -16 -240 13 -304
27 -59 95 -134 146 -160 84 -43 203 -41 294 4 195 98 234 449 66 610 -75 73
-202 104 -306 74z m180 -106 c141 -64 166 -356 40 -467 -99 -87 -249 -56 -308
64 -21 42 -24 62 -24 158 0 121 13 162 73 218 52 49 145 61 219 27z"/>
<path d="M16388 6337 c-142 -40 -228 -175 -228 -357 0 -194 102 -334 263 -360
102 -16 203 15 268 82 35 37 74 120 61 132 -3 3 -26 6 -51 6 -43 0 -47 -3 -69
-41 -74 -129 -258 -110 -335 35 -19 35 -22 57 -22 151 0 94 3 116 22 151 43
80 116 120 205 112 57 -6 93 -29 127 -81 23 -35 27 -37 77 -37 l53 0 -8 28
c-13 45 -37 85 -68 114 -66 63 -198 92 -295 65z"/>
<path d="M17895 6341 c-92 -23 -178 -102 -216 -200 -18 -45 -23 -76 -23 -161
0 -124 22 -192 83 -262 132 -149 421 -130 507 34 21 40 18 45 -32 57 l-47 12
-29 -36 c-17 -19 -44 -43 -61 -52 -39 -20 -151 -23 -187 -4 -51 27 -100 85
-115 135 -28 94 -50 86 246 86 l261 0 -7 78 c-12 130 -50 210 -124 264 -67 48
-175 68 -256 49z m152 -106 c21 -9 46 -23 57 -33 26 -24 56 -91 56 -129 l0
-33 -201 0 -201 0 7 33 c10 44 38 98 67 124 54 51 145 67 215 38z"/>
<path d="M18597 6336 c-101 -27 -173 -120 -163 -209 11 -103 61 -143 243 -191
142 -38 163 -53 163 -115 0 -123 -252 -152 -307 -37 -18 39 -28 42 -86 25 -43
-12 -44 -25 -1 -91 83 -129 354 -137 463 -12 56 63 63 154 18 221 -31 46 -95
77 -220 109 -149 37 -192 80 -154 153 43 84 236 81 275 -4 6 -14 20 -25 30
-25 21 0 82 20 82 26 0 3 -9 22 -20 43 -50 100 -184 144 -323 107z"/>
<path d="M11450 5985 l0 -355 55 0 55 0 0 355 0 355 -55 0 -55 0 0 -355z"/>
<path d="M15437 6333 c-10 -10 -8 -429 3 -502 5 -39 20 -82 37 -110 78 -128
283 -134 372 -10 l31 42 0 -61 0 -62 55 0 55 0 0 355 0 355 -55 0 -55 0 0
-235 c0 -256 -4 -278 -56 -327 -38 -35 -74 -48 -134 -48 -38 0 -55 6 -80 26
-62 53 -65 64 -68 337 l-4 247 -47 0 c-26 0 -51 -3 -54 -7z"/>
<path d="M19145 5765 c-25 -24 -32 -65 -19 -100 9 -23 62 -48 90 -41 92 23 78
166 -16 166 -19 0 -40 -9 -55 -25z"/>
</g>
</svg>
